<svg width="124" height="30" viewBox="0 0 124 30" fill="none" xmlns="http://www.w3.org/2000/svg">
<rect width="123.529" height="30" fill="black" fill-opacity="0"/>
<rect width="30.0697" height="27.1233" fill="black" fill-opacity="0"/>
<path d="M23.469 23.1174C22.5522 23.1174 22.4605 22.5603 22.3689 22.2818H21.4521L21.7271 25.7169L23.469 27.1095C23.6829 27.1405 24.3857 27.1095 26.6776 27.1095C29.3362 27.1095 30.0696 23.9529 30.0696 23.1174V10.1197C30.0696 8.41138 28.4806 7.05591 27.6861 6.5917L14.5764 0V4.27068L26.3109 10.349V22.2818C26.3109 22.876 26.0053 23.1174 25.3025 23.1174H23.469Z" fill="#545454"/>
<path d="M3.0253 17.1756L10.6344 13.7405L12.8346 18.3825L11.8262 17.547C9.77875 18.4444 11.6428 17.7326 5.13384 20.5179C4.58379 20.7532 3.94206 21.242 3.94206 21.9105C3.94206 22.5789 4.40044 22.9317 4.85882 23.0246H9.99266C10.7261 23.0246 10.7872 22.0962 10.7261 21.632L11.4595 20.425L12.1012 21.1677L12.5596 23.6744L11.8262 25.5313L9.44261 27.1096H4.21709C2.38357 27.1096 0 24.6957 0 22.0033C0 19.8494 0.825082 18.3825 3.0253 17.1756Z" fill="#545454"/>
<path fill-rule="evenodd" clip-rule="evenodd" d="M14.5765 22.412C14.563 22.8704 14.5046 23.4971 14.2899 24.0548C13.6664 25.3197 12.1335 27.1095 9.44263 27.1095C9.8399 26.7382 10.6344 25.5312 10.6344 23.6744V2.69238C10.6956 1.79492 11.5695 0 14.5765 0V12.255C15.1265 11.8527 16.5566 11.0481 17.8768 11.0481C19.527 11.0481 22.3689 13.2762 22.3689 14.9474V24.3243C22.3689 24.6028 22.6439 25.8098 23.469 27.1095C21.7883 26.8 18.4269 25.5127 18.4269 22.8389V15.5973C18.3963 15.3497 18.1335 14.9288 17.3267 15.226C16.52 15.5229 15.1571 16.1543 14.5765 16.4329L14.5764 21.8176C14.5764 21.8228 14.5765 21.8281 14.5765 21.8339V22.412Z" fill="#E83660"/>
<path d="M43.3501 11.982C44.1147 10.9974 45.0538 10.5051 46.1675 10.5051C47.3975 10.5051 48.3325 10.9504 48.9725 11.8408C49.6124 12.7312 49.9366 14.0582 49.9449 15.8219V24.6575H46.4044V15.8605C46.4044 15.0471 46.2797 14.4606 46.0304 14.101C45.7893 13.7329 45.3946 13.5488 44.846 13.5488C44.2061 13.5488 43.7074 13.8528 43.3501 14.4606V24.6575H39.822V4.93152H43.3501V11.982Z" fill="#48484C"/>
<path d="M51.0429 17.2603C51.0429 15.1541 51.525 13.5017 52.489 12.3031C53.4531 11.1045 54.787 10.5051 56.4908 10.5051C58.2112 10.5051 59.5534 11.1045 60.5175 12.3031C61.4816 13.5017 61.9636 15.1627 61.9636 17.286V18.1721C61.9636 20.2868 61.4857 21.9392 60.53 23.1293C59.5742 24.3194 58.2361 24.9144 56.5157 24.9144C54.787 24.9144 53.4407 24.3194 52.4766 23.1293C51.5208 21.9307 51.0429 20.2697 51.0429 18.1464V17.2603ZM54.5834 18.1721C54.5834 20.655 55.2275 21.8964 56.5157 21.8964C57.7042 21.8964 58.3442 20.8605 58.4356 18.7885L58.4481 17.2603C58.4481 15.9932 58.2777 15.0557 57.9369 14.4478C57.5962 13.8313 57.1141 13.5231 56.4908 13.5231C55.8924 13.5231 55.4228 13.8313 55.0821 14.4478C54.7496 15.0557 54.5834 15.9932 54.5834 17.2603V18.1721Z" fill="#48484C"/>
<path d="M69.7811 23.3861C69.0498 24.405 68.0691 24.9144 66.839 24.9144C65.6007 24.9144 64.6616 24.4778 64.0216 23.6045C63.3817 22.7226 63.0617 21.4426 63.0617 19.7646V10.762H66.5897V19.8545C66.6063 21.2072 67.0427 21.8836 67.8987 21.8836C68.7049 21.8836 69.2866 21.524 69.644 20.8048V10.762H73.197V24.6575H69.8809L69.7811 23.3861Z" fill="#48484C"/>
<path d="M80.6654 20.9332C80.6654 20.625 80.52 20.3425 80.2291 20.0856C79.9465 19.8202 79.3108 19.4649 78.3217 19.0197C76.8673 18.4118 75.8658 17.7825 75.3173 17.1319C74.7771 16.4812 74.507 15.6721 74.507 14.7046C74.507 13.4889 74.9308 12.4872 75.7786 11.6995C76.6346 10.9033 77.7649 10.5051 79.1695 10.5051C80.6488 10.5051 81.8331 10.899 82.7224 11.6867C83.6117 12.4743 84.0564 13.5317 84.0564 14.8587H80.5283C80.5283 13.7286 80.0712 13.1635 79.157 13.1635C78.783 13.1635 78.4755 13.2834 78.2345 13.5231C77.9935 13.7629 77.8729 14.0968 77.8729 14.5248C77.8729 14.8331 78.0059 15.107 78.2719 15.3468C78.5378 15.5779 79.1653 15.9118 80.1543 16.3485C81.5921 16.8964 82.6061 17.5086 83.1962 18.1849C83.7946 18.8528 84.0938 19.7218 84.0938 20.792C84.0938 22.0334 83.6408 23.0308 82.7349 23.7843C81.829 24.5377 80.6405 24.9144 79.1695 24.9144C78.1805 24.9144 77.3078 24.7175 76.5515 24.3236C75.7952 23.9212 75.2009 23.3647 74.7688 22.6541C74.3449 21.9435 74.133 21.1772 74.133 20.3553H77.4865C77.5031 20.9889 77.6444 21.4641 77.9103 21.7808C78.1846 22.0976 78.6292 22.256 79.2443 22.256C80.1917 22.256 80.6654 21.8151 80.6654 20.9332Z" fill="#48484C"/>
<path d="M90.7145 24.9144C88.9027 24.9144 87.4898 24.3579 86.4759 23.2449C85.4619 22.1319 84.9549 20.5394 84.9549 18.4675V17.363C84.9549 15.1712 85.4204 13.4803 86.3512 12.2903C87.282 11.1002 88.616 10.5051 90.353 10.5051C92.0484 10.5051 93.3242 11.0659 94.1802 12.1875C95.0362 13.3005 95.4726 14.9529 95.4892 17.1447V18.9298H88.4705C88.5204 19.9572 88.7406 20.7106 89.1312 21.1901C89.5219 21.661 90.1244 21.8964 90.9389 21.8964C92.1191 21.8964 93.1039 21.4812 93.8935 20.6507L95.2773 22.8468C94.8451 23.4632 94.2176 23.9641 93.3948 24.3493C92.572 24.726 91.6786 24.9144 90.7145 24.9144ZM88.4954 16.387H92.0235V16.0531C92.0069 15.2226 91.8739 14.5933 91.6245 14.1653C91.3752 13.7372 90.943 13.5231 90.328 13.5231C89.713 13.5231 89.2642 13.75 88.9816 14.2038C88.7074 14.6575 88.5453 15.3853 88.4954 16.387Z" fill="#48484C"/>
<path d="M106.972 18.1464C106.972 20.3296 106.606 22.0034 105.875 23.1678C105.152 24.3322 104.071 24.9144 102.634 24.9144C101.536 24.9144 100.655 24.4563 99.9906 23.5403V30H96.4626V10.762H99.7288L99.8535 12.0334C100.527 11.0146 101.445 10.5051 102.609 10.5051C104.046 10.5051 105.127 11.0445 105.85 12.1233C106.581 13.2021 106.955 14.8545 106.972 17.0805V18.1464ZM103.456 17.2346C103.456 15.8904 103.311 14.9401 103.02 14.3836C102.737 13.8271 102.255 13.5488 101.574 13.5488C100.851 13.5488 100.323 13.8613 99.9906 14.4863V20.9974C100.306 21.5968 100.842 21.8964 101.599 21.8964C102.297 21.8964 102.779 21.5925 103.045 20.9846C103.319 20.3767 103.456 19.4307 103.456 18.1464V17.2346Z" fill="#48484C"/>
<path d="M111.785 24.6575H108.244V10.762H111.785V24.6575ZM108.082 7.16611C108.082 6.60104 108.257 6.13871 108.606 5.77912C108.955 5.41953 109.42 5.23974 110.002 5.23974C110.584 5.23974 111.049 5.41953 111.399 5.77912C111.748 6.13871 111.922 6.60104 111.922 7.16611C111.922 7.72261 111.748 8.18494 111.399 8.55309C111.058 8.92124 110.592 9.10532 110.002 9.10532C109.412 9.10532 108.943 8.92124 108.594 8.55309C108.253 8.18494 108.082 7.72261 108.082 7.16611Z" fill="#48484C"/>
<path d="M116.723 10.762L116.822 12.1361C117.62 11.0488 118.663 10.5051 119.952 10.5051C122.27 10.5051 123.463 12.179 123.529 15.5266V24.6575H119.989V15.7962C119.989 15.0086 119.873 14.4392 119.64 14.0882C119.415 13.7286 119.017 13.5488 118.443 13.5488C117.803 13.5488 117.304 13.887 116.947 14.5634V24.6575H113.407V10.762H116.723Z" fill="#48484C"/>
</svg>
